<svg width="30" height="31" viewBox="0 0 30 31" fill="none" xmlns="http://www.w3.org/2000/svg">
<path d="M8.5095 0.466797C8.78798 0.466797 9.05505 0.577422 9.25196 0.774335C9.44888 0.971248 9.5595 1.23832 9.5595 1.5168V3.4803H20.835V1.5303C20.835 1.25182 20.9456 0.984748 21.1425 0.787835C21.3395 0.590922 21.6065 0.480297 21.885 0.480297C22.1635 0.480297 22.4305 0.590922 22.6275 0.787835C22.8244 0.984748 22.935 1.25182 22.935 1.5303V3.4803H27C27.7954 3.4803 28.5582 3.79616 29.1208 4.35845C29.6834 4.92073 29.9996 5.68341 30 6.4788V27.4683C29.9996 28.2637 29.6834 29.0264 29.1208 29.5886C28.5582 30.1509 27.7954 30.4668 27 30.4668H3C2.20461 30.4668 1.44178 30.1509 0.87921 29.5886C0.316644 29.0264 0.000397695 28.2637 0 27.4683L0 6.4788C0.000397695 5.68341 0.316644 4.92073 0.87921 4.35845C1.44178 3.79616 2.20461 3.4803 3 3.4803H7.4595V1.5153C7.4599 1.23708 7.5707 0.970393 7.76757 0.773804C7.96444 0.577215 8.23128 0.466797 8.5095 0.466797ZM2.1 12.0798V27.4683C2.1 27.5865 2.12328 27.7035 2.16851 27.8127C2.21374 27.9219 2.28003 28.0211 2.3636 28.1047C2.44718 28.1883 2.54639 28.2546 2.65558 28.2998C2.76478 28.345 2.88181 28.3683 3 28.3683H27C27.1182 28.3683 27.2352 28.345 27.3444 28.2998C27.4536 28.2546 27.5528 28.1883 27.6364 28.1047C27.72 28.0211 27.7863 27.9219 27.8315 27.8127C27.8767 27.7035 27.9 27.5865 27.9 27.4683V12.1008L2.1 12.0798ZM10.0005 22.3953V24.8943H7.5V22.3953H10.0005ZM16.2495 22.3953V24.8943H13.7505V22.3953H16.2495ZM22.5 22.3953V24.8943H19.9995V22.3953H22.5ZM10.0005 16.4298V18.9288H7.5V16.4298H10.0005ZM16.2495 16.4298V18.9288H13.7505V16.4298H16.2495ZM22.5 16.4298V18.9288H19.9995V16.4298H22.5ZM7.4595 5.5788H3C2.88181 5.5788 2.76478 5.60208 2.65558 5.64731C2.54639 5.69253 2.44718 5.75883 2.3636 5.8424C2.28003 5.92597 2.21374 6.02519 2.16851 6.13438C2.12328 6.24357 2.1 6.36061 2.1 6.4788V9.9813L27.9 10.0023V6.4788C27.9 6.36061 27.8767 6.24357 27.8315 6.13438C27.7863 6.02519 27.72 5.92597 27.6364 5.8424C27.5528 5.75883 27.4536 5.69253 27.3444 5.64731C27.2352 5.60208 27.1182 5.5788 27 5.5788H22.935V6.9723C22.935 7.25077 22.8244 7.51785 22.6275 7.71476C22.4305 7.91167 22.1635 8.0223 21.885 8.0223C21.6065 8.0223 21.3395 7.91167 21.1425 7.71476C20.9456 7.51785 20.835 7.25077 20.835 6.9723V5.5788H9.5595V6.9588C9.5595 7.23727 9.44888 7.50435 9.25196 7.70126C9.05505 7.89817 8.78798 8.0088 8.5095 8.0088C8.23102 8.0088 7.96395 7.89817 7.76704 7.70126C7.57012 7.50435 7.4595 7.23727 7.4595 6.9588V5.5788Z" fill="black"/>
</svg>
