<svg width="26" height="26" viewBox="0 0 26 26" fill="none" xmlns="http://www.w3.org/2000/svg">
<path d="M1.75 13.4668C1.75 14.9442 2.04099 16.4071 2.60636 17.772C3.17172 19.1369 4.00039 20.3771 5.04505 21.4217C6.08971 22.4664 7.3299 23.2951 8.69481 23.8604C10.0597 24.4258 11.5226 24.7168 13 24.7168C14.4774 24.7168 15.9403 24.4258 17.3052 23.8604C18.6701 23.2951 19.9103 22.4664 20.955 21.4217C21.9996 20.3771 22.8283 19.1369 23.3936 17.772C23.959 16.4071 24.25 14.9442 24.25 13.4668C24.25 10.4831 23.0647 7.62163 20.955 5.51185C18.8452 3.40206 15.9837 2.2168 13 2.2168C10.0163 2.2168 7.15483 3.40206 5.04505 5.51185C2.93526 7.62163 1.75 10.4831 1.75 13.4668Z" stroke="#31111D" stroke-width="2.5" stroke-linecap="round" stroke-linejoin="round"/>
<path d="M13 7.2168V13.4668L16.75 17.2168" stroke="#31111D" stroke-width="2.5" stroke-linecap="round" stroke-linejoin="round"/>
</svg>
