<svg width="24" height="27" viewBox="0 0 24 27" fill="none" xmlns="http://www.w3.org/2000/svg">
<path d="M14.8125 11.5918C14.8125 10.8459 14.5162 10.1305 13.9887 9.60306C13.4613 9.07561 12.7459 8.7793 12 8.7793C11.2541 8.7793 10.5387 9.07561 10.0113 9.60306C9.48382 10.1305 9.1875 10.8459 9.1875 11.5918C9.1875 12.3377 9.48382 13.0531 10.0113 13.5805C10.5387 14.108 11.2541 14.4043 12 14.4043C12.7459 14.4043 13.4613 14.108 13.9887 13.5805C14.5162 13.0531 14.8125 12.3377 14.8125 11.5918ZM23.25 11.5918C23.25 16.9805 17.4431 22.8718 14.1731 25.763C13.5752 26.297 12.8016 26.5921 12 26.5921C11.1984 26.5921 10.4248 26.297 9.82687 25.763C6.55688 22.8718 0.75 16.9805 0.75 11.5918C0.75 10.1144 1.04099 8.65152 1.60636 7.28661C2.17172 5.9217 3.00039 4.6815 4.04505 3.63685C5.08971 2.59219 6.3299 1.76352 7.69481 1.19815C9.05972 0.632787 10.5226 0.341797 12 0.341797C13.4774 0.341797 14.9403 0.632787 16.3052 1.19815C17.6701 1.76352 18.9103 2.59219 19.955 3.63685C20.9996 4.6815 21.8283 5.9217 22.3936 7.28661C22.959 8.65152 23.25 10.1144 23.25 11.5918ZM21.375 11.5918C21.375 9.10539 20.3873 6.72082 18.6291 4.96267C16.871 3.20452 14.4864 2.2168 12 2.2168C9.5136 2.2168 7.12903 3.20452 5.37087 4.96267C3.61272 6.72082 2.625 9.10539 2.625 11.5918C2.625 13.6693 3.77813 16.0824 5.56875 18.4974C7.32 20.8562 9.48187 22.9543 11.0681 24.3587C11.3234 24.59 11.6555 24.7182 12 24.7182C12.3445 24.7182 12.6766 24.59 12.9319 24.3587C14.5181 22.9543 16.6819 20.858 18.4313 18.4974C20.2219 16.0824 21.375 13.6693 21.375 11.5918Z" fill="black"/>
</svg>
